<svg width="290" height="472" viewBox="0 0 290 472" fill="none" xmlns="http://www.w3.org/2000/svg">
<path d="M182.8 132.4C172.133 132.4 157.333 130.667 138.4 127.2C111.733 147.467 87.0667 157.6 64.4 157.6C63.6 157.6 62.8 157.6 62 157.6C45.7333 157.333 32.9333 153.067 23.6 144.8C14.5333 136.267 10 125.067 10 111.2C10 97.0667 14.5333 85.6 23.6 76.8C32.9333 68 46.6667 63.6 64.8 63.6C76.8 63.6 96 67.6 122.4 75.6C150.133 83.8667 170.8 88 184.4 88C206.8 88 221.6 80 228.8 64L244.4 74.8C238.533 113.2 218 132.4 182.8 132.4ZM49.6 123.2C49.6 129.867 55.3333 133.2 66.8 133.2C78.2667 133.2 92.2667 128.933 108.8 120.4C85.3333 114.533 69.2 111.6 60.4 111.6C57.4667 111.6 54.9333 112.8 52.8 115.2C50.6667 117.333 49.6 120 49.6 123.2ZM158.8 152.8L152.4 195.6H212C214.4 201.2 215.6 206.667 215.6 212C215.6 217.333 213.067 221.867 208 225.6C202.933 229.067 196.533 230.8 188.8 230.8H146.8L146.4 234.4C180 250.4 196.8 274.133 196.8 305.6C196.8 329.333 190.533 346.133 178 356C165.467 365.6 150.667 370.4 133.6 370.4C116.533 370.4 103.333 366.133 94 357.6C84.6667 348.8 80 337.2 80 322.8C80 320.4 80.2667 317.333 80.8 313.6L91.6 230.8H54C55.6 215.6 56.9333 203.867 58 195.6H96.4L100.8 160.4C114.667 153.733 126.267 150.4 135.6 150.4C144.933 150.4 152.667 151.2 158.8 152.8ZM146 334C152.4 334 158 331.733 162.8 327.2C167.6 322.4 170 314.933 170 304.8C170 284.8 160.933 269.467 142.8 258.8C138.533 288.4 136.267 306.933 136 314.4C136 321.6 136.933 326.667 138.8 329.6C140.933 332.533 143.333 334 146 334Z" fill="#0D4D4D"/>
<circle cx="241.5" cy="128.5" r="48.5" fill="#0D4D4D"/>
<path d="M247.5 58.6434C235.5 51.4434 229.5 60.6434 228 66.1434L251 89.1436L254.5 83.1436C257.167 77.9768 259.5 65.8434 247.5 58.6434Z" fill="#0D4D4D"/>
<path d="M253.403 149.291C250.226 151.126 247.055 152.119 243.891 152.27C240.764 152.401 237.606 151.711 234.419 150.201L235.8 143.122C239.104 144.663 241.876 145.453 244.114 145.49C246.353 145.528 248.618 144.885 250.909 143.563C252.313 142.752 253.46 141.794 254.349 140.69C255.239 139.585 255.792 138.452 256.009 137.293C256.226 136.133 256.047 135.054 255.471 134.056C255.087 133.391 254.613 132.827 254.05 132.364C253.487 131.9 252.827 131.567 252.069 131.364C251.349 131.14 250.501 131.038 249.528 131.058C248.591 131.057 247.557 131.186 246.425 131.445C245.273 131.667 244.004 132.03 242.62 132.534C239.661 133.552 236.996 134.056 234.625 134.046C232.291 134.014 230.222 133.459 228.418 132.382C226.65 131.284 225.159 129.682 223.943 127.576C223.047 126.024 222.547 124.391 222.445 122.677C222.379 120.941 222.659 119.252 223.287 117.608C223.931 115.907 224.916 114.328 226.243 112.872C227.549 111.379 229.144 110.089 231.028 109.001C234.021 107.273 236.968 106.36 239.867 106.262C242.783 106.106 245.527 106.763 248.1 108.234L246.288 114.823C244.134 113.652 242.004 113.035 239.897 112.97C237.828 112.884 235.851 113.385 233.966 114.473C232.525 115.305 231.397 116.252 230.581 117.314C229.766 118.376 229.278 119.495 229.12 120.67C228.976 121.788 229.214 122.882 229.833 123.954C230.281 124.73 230.845 125.365 231.524 125.859C232.183 126.317 232.957 126.633 233.846 126.809C234.752 126.927 235.839 126.891 237.109 126.7C238.357 126.472 239.786 126.09 241.398 125.553C243.686 124.823 245.828 124.351 247.822 124.136C249.795 123.883 251.602 123.899 253.244 124.183C254.886 124.467 256.314 125.021 257.53 125.847C258.783 126.651 259.793 127.718 260.561 129.048C261.99 131.524 262.655 133.998 262.555 136.47C262.455 138.941 261.639 141.284 260.109 143.498C258.558 145.675 256.322 147.606 253.403 149.291ZM252.67 155.7L238.142 130.537L244.574 129.262L258.046 152.596L252.67 155.7ZM246.791 127.982L240.359 129.257L226.951 106.034L232.327 102.93L246.791 127.982Z" fill="#BFF0E4"/>
</svg>
